<?xml version="1.0" encoding="UTF-8" standalone="no"?>
<svg width="300px" height="101px" viewBox="0 0 300 101" preserveAspectRatio="xMidYMid meet" version="1.1" xmlns="http://www.w3.org/2000/svg" xmlns:xlink="http://www.w3.org/1999/xlink">
    <!-- Generator: Sketch 39.1 (31720) - http://www.bohemiancoding.com/sketch -->
    <title>Page 1</title>
    <desc>Created with Sketch.</desc>
    <defs>
        <polygon id="path-1" points="23.3402066 0.00397145676 0.173718679 0.00397145676 0.173718679 35.4166571 23.3402066 35.4166571 23.3402066 0.00397145676"></polygon>
        <polygon id="path-3" points="5.39593262e-20 0.0233675391 5.39593262e-20 61.9820644 90.2440762 61.9820644 90.2440762 0.0233675391 0 0.0233675391"></polygon>
    </defs>
    <g id="Page-1" stroke="none" stroke-width="1" fill="none" fill-rule="evenodd">
        <g>
            <g id="Group-3" transform="translate(70.687247, 0.101106)">
                <mask id="mask-2" fill="white">
                    <use xlink:href="#path-1"></use>
                </mask>
                <g id="Clip-2"></g>
                <path d="M14.9809995,35.4166571 C24.3016805,30.7025379 24.4251069,22.4577937 22.0362096,15.2138565 C20.9890762,12.5847522 19.3566631,9.94770488 16.5059123,7.51717335 C16.2192446,9.37978657 15.7534096,11.1550277 15.0646109,12.9501262 C14.4196086,10.8889401 13.5237721,8.9905838 12.3691384,7.2550572 C9.42283173,2.7553967 6.31328372,1.05958466 2.64234485,0.0031771654 C5.59263303,4.79275401 4.84013038,10.5910809 2.20438034,15.7976607 C-0.562759049,21.5403872 -1.90850454,28.3633499 7.68689968,35.3372279 C7.89393745,32.7160665 6.82291515,29.4555005 9.91653717,26.9653971 C11.6285803,25.2219276 15.387112,28.6731235 14.9809995,31.9019178 L14.9809995,35.4166571 Z" id="Fill-1" fill="#DD1229" mask="url(#mask-2)"></path>
            </g>
            <g id="Group-6" transform="translate(0.000000, 18.228884)">
                <mask id="mask-4" fill="white">
                    <use xlink:href="#path-3"></use>
                </mask>
                <g id="Clip-5"></g>
                <path d="M74.5248369,46.3901252 C74.516874,46.5529549 74.508911,46.8905287 73.9674276,46.954072 L32.0542242,46.954072 L65.7934173,0.0233675391 L10.9761869,0.0233675391 L0.309760352,14.5708136 C11.8322084,14.5668422 23.342712,14.5747851 34.86516,14.5668422 C23.0640073,30.3692686 11.6211891,46.1756665 -0.000796299105,61.9820644 L85.2669119,61.9820644 C86.5489534,61.9423498 87.6876612,61.8033488 88.9577582,60.6992839 C89.9411876,59.7143626 90.3194297,58.3759817 90.2318368,57.0177434 L90.2318368,20.7226002 L74.5248369,20.7226002 L74.5248369,46.3901252 Z" id="Fill-4" fill="#000000" mask="url(#mask-4)"></path>
            </g>
            <path d="M120.284961,78.4631103 C127.368042,81.703819 135.338996,82.4147098 142.955597,79.6664617 C146.407553,78.4591388 149.628583,76.6878691 152.487297,74.4201673 C161.09529,67.652805 165.279842,57.4421897 164.917526,47.9702653 C164.762248,43.7287495 163.73104,39.5110624 161.927423,35.6587494 C159.845101,31.2107178 156.715645,27.2352896 152.901373,24.1216675 C142.223002,15.62275 128.343508,13.9745955 115.216518,22.2868545 L115.216518,18.2518544 L99.2984984,18.2518544 L99.2984984,100.35378 L115.005498,100.35378 L115.005498,48.3078391 C115.053276,44.6540989 116.080502,40.7461855 119.85496,37.1202455 C125.190164,32.298897 131.986577,31.143203 138.735212,33.7127356 C140.769756,34.5467415 142.653003,35.7659787 144.233657,37.2949896 C149.298119,42.3466826 150.667754,48.9909297 147.944411,55.6113481 C147.076445,57.601048 145.794403,59.4120322 144.233657,60.9251573 C137.544744,66.8585137 128.77351,68.1651229 120.249128,61.3858462 L120.284961,78.4631103 Z" id="Fill-7" fill="#000000"></path>
            <g id="Group-11" transform="translate(169.816472, 16.443522)" fill="#000000">
                <path d="M93.2930949,50.3744827 C90.8126232,50.3387396 88.5073373,49.8780507 86.3852002,48.9805014 C84.33473,48.1147239 82.3559267,46.8001717 80.7434211,45.1837888 C76.3757205,40.8787296 74.5601585,34.2583112 76.0651638,28.3845267 C76.7937775,25.4615345 78.3067458,22.7172579 80.3771235,20.5210423 C84.6134347,15.9776958 91.1948468,14.0515393 97.0476452,15.3581485 C100.009878,15.9975531 102.816832,17.4193346 105.078322,19.4169773 C109.808338,23.5592067 111.866772,30.0644529 110.751953,35.8746941 C110.206488,38.8453438 108.741298,41.8437936 106.925736,44.012209 C103.887855,47.6421205 99.3489496,49.758907 93.2930949,50.3744827 M83.5543569,1.91873887 C80.5523093,2.89174578 77.5622061,4.41678517 74.99016,6.1959978 C69.9814386,9.67102246 66.07161,14.4963424 63.2447482,20.6759291 C58.8133437,10.7115441 50.6632224,4.42075663 42.9112506,1.92668178 C34.5978879,-0.924824167 24.9586872,0.068040022 15.9366184,5.84253815 L15.9366184,1.80753808 L0.00267328985,1.80753808 L0.00267328985,83.9134351 L15.7136546,83.9134351 L15.7136546,31.8635228 C15.7654141,28.309069 16.71301,24.7188721 19.9778363,21.2597333 C25.63156,15.6917509 33.0331602,14.4725137 40.319297,17.657622 C42.529027,18.7021151 44.5118118,20.2072972 46.0845025,22.0699105 C49.624052,26.1684538 50.989705,32.2010966 49.2577544,37.5665347 C48.4296034,40.1757818 46.9166351,42.5745417 44.9418133,44.4848124 C39.0173479,50.1322239 29.0914796,51.7049208 21.0528401,45.020959 L20.9931177,62.018794 C27.9527719,65.1562448 35.4857614,65.9942222 42.9271766,63.4127753 C45.9770021,62.4040253 48.9193273,60.914729 51.4873919,59.1315449 C56.4961133,55.6247486 60.6289057,50.7438282 63.1690998,44.4887838 C67.437263,54.3856541 75.7346997,60.958415 83.5503754,63.4127753 C90.569752,65.7678491 99.520154,65.5375046 107.244255,61.7805066 C111.795105,59.5922339 115.82836,56.3118106 118.921982,52.3363824 C124.818577,44.8740151 127.072103,34.7904864 124.945984,25.6005355 C123.966536,21.3193051 122.071345,17.2485619 119.463465,13.709994 C116.46938,9.6392508 112.356496,6.15628323 108.012684,3.9362389 C101.34766,0.564472117 92.4131844,-0.976453105 83.5543569,1.91873887" id="Fill-9"></path>
            </g>
            <path d="M291.936391,20.7471207 L291.936391,21.2951817 C296.292147,21.2951817 299.815771,17.7804425 299.815771,13.4356688 C299.815771,9.08692366 296.292147,5.57218443 291.936391,5.57218443 C287.576653,5.57218443 284.05303,9.08692366 284.05303,13.4356688 C284.05303,17.7804425 287.576653,21.2951817 291.936391,21.2951817 L291.936391,20.7471207 L291.936391,20.1990597 C288.185822,20.1950882 285.155904,17.1728096 285.147941,13.4356688 C285.155904,9.698528 288.185822,6.67227795 291.936391,6.66433504 C295.678997,6.67227795 298.712896,9.698528 298.720859,13.4356688 C298.712896,17.1728096 295.678997,20.1950882 291.936391,20.1990597 L291.936391,20.7471207 Z" id="Fill-12" fill="#000000"></path>
            <path d="M289.331298,12.9396339 L291.728159,12.9396339 C292.241772,12.9396339 292.643903,12.8880049 292.93057,12.7807756 C293.221219,12.6775177 293.440202,12.5067451 293.587517,12.2764006 C293.734832,12.0460561 293.814462,11.7918829 293.814462,11.5178523 C293.814462,11.1207067 293.671128,10.7950472 293.380479,10.5369025 C293.085849,10.2827293 292.631958,10.1516712 292.006863,10.1516712 L289.331298,10.1516712 L289.331298,12.9396339 Z M288.21648,17.6497816 L288.21648,9.22235033 L291.959085,9.22235033 C292.71557,9.22235033 293.284923,9.29780801 293.679091,9.44872337 C294.069278,9.59963873 294.379835,9.86969778 294.614743,10.2469862 C294.849651,10.6361889 294.969096,11.0531919 294.969096,11.5178523 C294.969096,12.1175423 294.770021,12.6219173 294.387798,13.0309774 C293.99363,13.4440089 293.396405,13.7021536 292.588162,13.8133543 C292.882792,13.9523553 293.105756,14.0953278 293.261034,14.2303573 C293.587517,14.532188 293.894092,14.905505 294.188723,15.3542796 L295.661876,17.6497816 L294.252427,17.6497816 L293.133627,15.8943977 C292.811125,15.3860512 292.544365,15.0008199 292.329364,14.7307609 C292.118345,14.4646733 291.923252,14.2780148 291.760011,14.1707855 C291.588806,14.0635561 291.421583,13.9880984 291.246398,13.9483839 C291.122971,13.9166122 290.911952,13.9046978 290.625284,13.9046978 L289.331298,13.9046978 L289.331298,17.6497816 L288.21648,17.6497816 Z" id="Fill-14" fill="#000000"></path>
        </g>
    </g>
</svg>
